HIERARCHY
ROOT root
{
	OFFSET 0.000000 0.000000 0.000000
	CHANNELS 6 Xposition Yposition Zposition Zrotation Yrotation Xrotation
	JOINT lhip
	{
		OFFSET 0.058581 -0.082280 -0.017664
		CHANNELS 3 Zrotation Yrotation Xrotation
		JOINT lknee
		{
			OFFSET 0.043451 -0.386469 0.008037
			CHANNELS 3 Zrotation Yrotation Xrotation
			JOINT lankle
			{
				OFFSET -0.014790 -0.426874 -0.037428
				CHANNELS 3 Zrotation Yrotation Xrotation
				JOINT ltoe
				{
					OFFSET 0.041054 -0.060286 0.122042
					CHANNELS 3 Zrotation Yrotation Xrotation
					End Site
					{
						OFFSET 0.000000 0.000000 0.000000
					}
				}
			}
		}
	}
	JOINT rhip
	{
		OFFSET -0.060310 -0.090513 -0.013543
		CHANNELS 3 Zrotation Yrotation Xrotation
		JOINT rknee
		{
			OFFSET -0.043257 -0.383688 -0.004843
			CHANNELS 3 Zrotation Yrotation Xrotation
			JOINT rankle
			{
				OFFSET 0.019056 -0.420046 -0.034562
				CHANNELS 3 Zrotation Yrotation Xrotation
				JOINT rtoe
				{
					OFFSET -0.034840 -0.062106 0.130323
					CHANNELS 3 Zrotation Yrotation Xrotation
					End Site
					{
						OFFSET 0.000000 0.000000 0.000000
					}
				}
			}
		}
	}
	JOINT lowerback
	{
		OFFSET 0.004439 0.124404 -0.038385
		CHANNELS 3 Zrotation Yrotation Xrotation
		JOINT upperback
		{
			OFFSET 0.004488 0.137956 0.026820
			CHANNELS 3 Zrotation Yrotation Xrotation
			JOINT chest
			{
				OFFSET -0.002265 0.056032 0.002855
				CHANNELS 3 Zrotation Yrotation Xrotation
				JOINT lowerneck
				{
					OFFSET -0.013390 0.211636 -0.033468
					CHANNELS 3 Zrotation Yrotation Xrotation
					JOINT upperneck
					{
						OFFSET 0.010113 0.088937 0.050410
						CHANNELS 3 Zrotation Yrotation Xrotation
						End Site
						{
							OFFSET 0.000000 0.000000 0.000000
						}
					}
				}
				JOINT lclavicle
				{
					OFFSET 0.071702 0.114000 -0.018898
					CHANNELS 3 Zrotation Yrotation Xrotation
					JOINT lshoulder
					{
						OFFSET 0.122921 0.045205 -0.019046
						CHANNELS 3 Zrotation Yrotation Xrotation
						JOINT lelbow
						{
							OFFSET 0.255332 -0.015649 -0.022946
							CHANNELS 3 Zrotation Yrotation Xrotation
							JOINT lwrist
							{
								OFFSET 0.265709 0.012698 -0.007375
								CHANNELS 3 Zrotation Yrotation Xrotation
								End Site
								{
									OFFSET 0.000000 0.000000 0.000000
								}
							}
						}
					}
				}
				JOINT rclavicle
				{
					OFFSET -0.082954 0.112472 -0.023707
					CHANNELS 3 Zrotation Yrotation Xrotation
					JOINT rshoulder
					{
						OFFSET -0.113228 0.046853 -0.008472
						CHANNELS 3 Zrotation Yrotation Xrotation
						JOINT relbow
						{
							OFFSET -0.260127 -0.014369 -0.031269
							CHANNELS 3 Zrotation Yrotation Xrotation
							JOINT rwrist
							{
								OFFSET -0.269108 0.006794 -0.006027
								CHANNELS 3 Zrotation Yrotation Xrotation
								End Site
								{
									OFFSET 0.000000 0.000000 0.000000
								}
							}
						}
					}
				}
			}
		}
	}
}
MOTION
Frames: 10
Frame Time: 0.033333
-2.111396 0.736944 0.990619 92.161273 -0.457565 86.722556 4.344271 -1.951642 -11.586533 -4.149113 -4.019901 19.719513 0.556921 7.894570 -14.984805 0.000000 -0.000000 0.000000 7.429783 -2.773898 -0.072804 -2.982394 -4.474703 12.393374 -0.286128 -10.782386 -19.191461 0.000000 -0.000000 0.000000 -3.780171 3.153355 12.241615 -0.028364 -2.897569 -3.068830 -0.522598 -0.400025 4.911568 5.435603 0.339456 -11.014164 3.388082 -9.754962 3.353112 -22.453417 -0.761002 -1.797012 -56.508095 -10.504771 11.224961 3.316806 -24.877977 10.495515 1.561219 -2.662816 -9.046268 21.299843 2.004461 -3.040213 61.307083 2.821058 16.863927 -12.231389 27.763699 8.135686 0.835132 1.205640 -2.819202 
-2.112096 0.735669 0.990108 91.890236 -0.633372 86.541257 4.392902 -1.839688 -11.291963 -4.234111 -3.814835 19.455336 0.359442 7.854525 -14.404902 0.000000 -0.000000 0.000000 7.370298 -2.669961 -0.079875 -2.989042 -4.293100 12.678688 -0.454773 -10.709230 -19.187855 0.000000 -0.000000 0.000000 -3.953836 3.064920 12.264787 -0.088772 -2.911667 -2.853538 -0.521719 -0.387682 4.624797 5.386597 0.631605 -10.749102 3.561088 -9.517241 3.173214 -22.327047 -0.765296 -1.807577 -56.384137 -10.368786 11.213014 3.197513 -25.588236 10.484089 0.182383 -2.462406 -9.854212 21.332775 2.022529 -2.879711 61.283679 2.728995 16.966673 -12.277505 28.319364 8.433165 1.888367 0.802184 -2.367363 
-2.114783 0.733956 0.989771 92.263642 -0.613573 86.586273 4.647067 -1.597401 -12.103766 -4.421301 -3.644212 20.376852 0.710877 7.947293 -14.099112 0.000000 -0.000000 0.000000 7.564129 -2.598846 -0.627886 -2.994569 -4.245276 13.272397 -0.790762 -11.213178 -19.418843 0.000000 -0.000000 0.000000 -4.036476 2.916625 12.403145 0.079490 -3.080928 -3.022288 -0.491316 -0.477816 4.727981 5.356271 0.571991 -11.326758 3.459781 -9.598154 3.474890 -22.158488 -0.988479 -1.628966 -56.227037 -10.677724 11.277857 2.915445 -26.277935 10.997788 -0.122834 -2.537408 -10.077508 21.235154 2.021995 -3.078579 61.313225 2.449134 17.151807 -12.414871 28.933638 8.924818 2.264510 1.239685 -2.269693 
-2.116026 0.732260 0.989791 92.142158 -0.661800 86.518210 4.845141 -1.519689 -12.256994 -4.621701 -3.484403 20.712533 0.740917 7.983972 -13.963807 0.000000 -0.000000 0.000000 7.657052 -2.486184 -0.771116 -2.993114 -4.095892 13.518754 -0.943199 -11.276485 -19.502739 0.000000 -0.000000 0.000000 -4.204093 3.028544 12.197103 0.174074 -2.985611 -2.875824 -0.435943 -0.572274 4.747855 5.422009 0.677479 -11.202075 3.382217 -9.730090 3.507150 -22.086066 -1.047792 -1.665849 -56.083510 -10.806279 11.414773 2.543192 -26.792992 11.171764 -0.801529 -2.446060 -10.257137 21.251222 2.025160 -3.043750 61.315795 2.517085 17.340599 -12.550357 29.316758 8.877225 3.045619 0.796254 -2.495468 
-2.116964 0.730777 0.989520 92.192459 -0.690749 86.402966 4.938741 -1.447557 -12.456514 -4.589931 -3.298481 21.159357 0.649581 7.977536 -13.824451 0.000000 -0.000000 0.000000 7.761725 -2.547183 -0.733769 -3.021280 -4.042255 13.590648 -1.135923 -11.331205 -19.535410 0.000000 -0.000000 0.000000 -4.174880 2.921853 12.384784 0.185630 -3.108541 -3.096848 -0.479431 -0.545979 4.747135 5.330655 0.848491 -11.251850 3.324957 -9.612521 3.746447 -21.933290 -0.900578 -1.764233 -56.098375 -10.818950 11.450546 1.941183 -27.007804 11.795714 -0.969374 -2.204159 -10.388085 21.261074 1.948228 -3.111436 61.402288 2.629519 17.453679 -12.522572 29.770375 8.875735 2.847115 0.894020 -2.244794 
-2.118021 0.729073 0.989421 92.056691 -0.710181 86.278717 5.093525 -1.336076 -12.561759 -4.508373 -3.100999 21.451128 0.340797 7.774623 -13.137585 0.000000 -0.000000 0.000000 8.001540 -2.361832 -0.693411 -3.231709 -4.024630 13.610839 -1.335789 -11.248114 -19.399975 0.000000 -0.000000 0.000000 -4.184125 2.763926 12.852540 0.149742 -3.105683 -3.487731 -0.481818 -0.426809 4.527187 5.304313 0.997565 -11.181324 3.355868 -9.384739 4.012948 -21.858772 -0.838729 -1.696500 -56.254740 -10.580055 11.415270 2.312700 -27.406492 11.657565 -1.350337 -2.589932 -10.769376 21.185475 1.990996 -3.088152 61.627454 2.588576 17.558375 -12.610794 30.139025 9.189101 3.257348 0.945380 -2.493707 
-2.118987 0.727281 0.989107 91.830994 -0.723651 86.174181 5.282772 -1.558634 -12.810362 -4.473429 -2.758777 21.970211 0.183803 8.003296 -12.859909 0.000000 -0.000000 0.000000 8.226079 -2.105923 -0.674973 -3.308344 -3.775221 13.696595 -1.636903 -11.474670 -19.538207 0.000000 -0.000000 0.000000 -4.287316 2.931213 12.496354 0.209654 -2.967949 -3.103964 -0.444912 -0.434198 4.629275 5.453258 1.122356 -11.139782 3.214865 -9.378982 4.030682 -21.918836 -1.087092 -1.713807 -56.242647 -10.657393 11.535371 2.503252 -27.592301 11.198560 -0.911732 -2.161834 -11.122187 21.197994 2.238570 -3.028497 61.611295 2.840566 17.828710 -12.706745 30.390423 8.976881 2.490333 0.818232 -3.024640 
-2.120499 0.725637 0.989287 91.752021 -0.784531 86.027933 5.336340 -2.002130 -13.197570 -4.220815 -2.420662 22.791752 -0.000307 7.981275 -12.352155 0.000000 -0.000000 0.000000 8.428776 -2.128075 -0.474860 -3.463963 -3.360858 13.377752 -1.819680 -11.634354 -19.184473 0.000000 -0.000000 0.000000 -4.380342 3.261779 12.548388 0.262811 -2.996520 -2.904931 -0.382859 -0.487788 4.644359 5.530720 1.243486 -11.383431 3.222388 -9.153087 3.880513 -22.129728 -1.141884 -1.754481 -56.146404 -10.859556 11.542191 2.526773 -27.668428 10.968437 -1.269379 -2.070807 -11.065687 21.425891 2.340467 -3.199845 61.306321 3.010650 17.969587 -12.757918 30.749640 8.798791 2.555028 1.128674 -2.807480 
-2.122022 0.723542 0.989394 91.631765 -0.908071 86.019207 5.415079 -2.263849 -13.807363 -4.111788 -2.077679 23.742404 -0.348757 7.853877 -11.935742 0.000000 -0.000000 0.000000 8.596394 -1.963713 -0.542942 -3.670422 -3.200808 13.307087 -1.905571 -11.714695 -19.334001 0.000000 -0.000000 0.000000 -4.542441 3.361013 12.813504 0.231902 -2.949778 -3.160746 -0.306714 -0.518053 4.567477 5.746720 1.444043 -11.543699 3.127244 -8.810884 4.047049 -22.110856 -0.869395 -1.831096 -56.151476 -10.668409 11.557045 2.541384 -28.266063 11.187135 -1.137118 -2.224220 -11.066426 21.296428 2.243739 -3.204504 61.430948 3.252243 18.141520 -12.629107 31.204263 8.849621 2.533501 0.946303 -3.232854 
-2.123162 0.721416 0.989601 91.598544 -0.860011 85.934478 5.645009 -2.803411 -14.859380 -4.033768 -1.793832 25.583011 -0.742560 7.722502 -11.146742 0.000000 -0.000000 0.000000 8.896744 -1.881129 -0.196030 -3.740366 -2.959374 12.641153 -2.213702 -11.729981 -18.982392 0.000000 -0.000000 0.000000 -4.461566 3.540231 12.982459 0.255463 -3.057314 -3.267452 -0.308857 -0.559322 4.550668 5.820008 1.611581 -11.451616 3.299401 -8.375105 3.595572 -22.209061 -0.586866 -1.944269 -56.033640 -10.365372 11.619258 2.529045 -28.923887 11.196806 -1.408916 -2.248140 -11.552352 21.313353 2.255337 -3.183804 61.355442 3.244796 18.388937 -12.784550 31.819923 8.879741 2.868894 0.945244 -3.500890 
